<!-- arrow icon without circle-->

<!-- <svg xmlns="http://www.w3.org/2000/svg" x="0px" y="0px"
width="50" height="50"
viewBox="0 0 50 50"
style=" fill:#000000;"><path d="M 27.84375 11 C 27.351563 11.078125 26.992188 11.503906 27 12 L 27 20 L 5 20 C 4.449219 20 4 20.449219 4 21 L 4 29 C 4 29.550781 4.449219 30 5 30 L 27 30 L 27 38 C 27.007813 38.375 27.222656 38.710938 27.558594 38.875 C 27.894531 39.039063 28.292969 39.003906 28.59375 38.78125 L 45.59375 25.78125 C 45.832031 25.589844 45.96875 25.304688 45.96875 25 C 45.96875 24.695313 45.832031 24.410156 45.59375 24.21875 L 28.59375 11.21875 C 28.382813 11.046875 28.113281 10.96875 27.84375 11 Z M 29 14 L 43.375 25 L 29 36 L 29 29 C 29 28.449219 28.550781 28 28 28 L 6 28 L 6 22 L 28 22 C 28.550781 22 29 21.550781 29 21 Z"></path></svg> -->


<svg xmlns="http://www.w3.org/2000/svg" x="0px" y="0px"
width="50" height="50"
viewBox="0 0 172 172"
style=" fill:#000000;"><g fill="none" fill-rule="nonzero" stroke="none" stroke-width="1" stroke-linecap="butt" stroke-linejoin="miter" stroke-miterlimit="10" stroke-dasharray="" stroke-dashoffset="0" font-family="none" font-weight="none" font-size="none" text-anchor="none" style="mix-blend-mode: normal"><path d="M0,172v-172h172v172z" fill="none"></path><path d="M0,86c0,-47.49649 38.50351,-86 86,-86c47.49649,0 86,38.50351 86,86c0,47.49649 -38.50351,86 -86,86c-47.49649,0 -86,-38.50351 -86,-86zM86,168.56c45.59663,0 82.56,-36.96337 82.56,-82.56c0,-45.59663 -36.96337,-82.56 -82.56,-82.56c-45.59663,0 -82.56,36.96337 -82.56,82.56c0,45.59663 36.96337,82.56 82.56,82.56z" fill="#333333"></path><g fill="#000000"><path d="M92.83213,52.27029c-1.18527,0.18814 -2.05071,1.21349 -2.0319,2.40817v19.2654h-52.97985c-1.32638,0 -2.40817,1.0818 -2.40817,2.40817v19.2654c0,1.32638 1.0818,2.40817 2.40817,2.40817h52.97985v19.2654c0.01882,0.90307 0.53619,1.71206 1.34519,2.10715c0.809,0.39509 1.7685,0.31043 2.49284,-0.22577l40.93897,-31.30627c0.57382,-0.46094 0.90307,-1.14764 0.90307,-1.88139c0,-0.73374 -0.32924,-1.42045 -0.90307,-1.88139l-40.93897,-31.30627c-0.50797,-0.41391 -1.15705,-0.60204 -1.80613,-0.52679zM95.61658,59.49482l34.61751,26.48992l-34.61751,26.48992v-16.85722c0,-1.32638 -1.0818,-2.40817 -2.40817,-2.40817h-52.97985v-14.44905h52.97985c1.32638,0 2.40817,-1.0818 2.40817,-2.40817z"></path></g><path d="M86,172c-47.49649,0 -86,-38.50351 -86,-86v0c0,-47.49649 38.50351,-86 86,-86v0c47.49649,0 86,38.50351 86,86v0c0,47.49649 -38.50351,86 -86,86z" fill="none"></path><path d="M86,168.56c-45.59663,0 -82.56,-36.96337 -82.56,-82.56v0c0,-45.59663 36.96337,-82.56 82.56,-82.56v0c45.59663,0 82.56,36.96337 82.56,82.56v0c0,45.59663 -36.96337,82.56 -82.56,82.56z" fill="none"></path><path d="M86,172c-47.49649,0 -86,-38.50351 -86,-86v0c0,-47.49649 38.50351,-86 86,-86v0c47.49649,0 86,38.50351 86,86v0c0,47.49649 -38.50351,86 -86,86z" fill="none"></path><path d="M86,168.56c-45.59663,0 -82.56,-36.96337 -82.56,-82.56v0c0,-45.59663 36.96337,-82.56 82.56,-82.56v0c45.59663,0 82.56,36.96337 82.56,82.56v0c0,45.59663 -36.96337,82.56 -82.56,82.56z" fill="none"></path></g></svg>